<svg data-v-0dd9719b="" version="1.0" xmlns="http://www.w3.org/2000/svg" xmlns:xlink="http://www.w3.org/1999/xlink" width="100%" height="100%" viewBox="0 0 340.000000 250.000000" preserveAspectRatio="xMidYMid meet" color-interpolation-filters="sRGB" style="margin: auto;"> <rect data-v-0dd9719b="" x="0" y="0" width="100%" height="100%" fill="#fff" fill-opacity="1" class="background"></rect> <rect data-v-0dd9719b="" x="0" y="0" width="100%" height="100%" fill="url(#watermark)" fill-opacity="1" class="watermarklayer"></rect> <g data-v-0dd9719b="" fill="#212f6d" class="icon-text-wrapper icon-svg-group iconsvg" transform="translate(47.17699432373047,92.92370223999023)"><g class="iconsvg-imagesvg" transform="translate(0,0)"><g><rect fill="#212f6d" fill-opacity="0" stroke-width="2" x="0" y="0" width="60" height="64.15259764559967" class="image-rect"></rect> <svg x="0" y="0" width="60" height="64.15259764559967" filtersec="colorsb14064641" class="image-svg-svg primary" style="overflow: visible;"><svg xmlns="http://www.w3.org/2000/svg" viewBox="0.0019052320858463645 0 159.90245056152344 170.9694061279297"><defs><linearGradient id="a7797ece3-614c-482e-bd9f-658fa7714835" y1="85.46" x2="159.9" y2="85.46" gradientUnits="userSpaceOnUse"><stop offset="0" stop-color="#212f6d"></stop><stop offset="1" stop-color="#1890ea"></stop></linearGradient></defs><g><path d="M149.77 137.47a3.21 3.21 0 0 1 .18 4.37A85.61 85.61 0 0 1 94 170.7a3.15 3.15 0 0 1-3.48-3v-.23a3.16 3.16 0 0 1 2.88-3.27 78.3 78.3 0 0 0 49.06-23.87 1.36 1.36 0 0 0 0-1.91l-4.67-4.52a1.39 1.39 0 0 0-1-.38 1.36 1.36 0 0 0-1 .41 69.25 69.25 0 0 1-49.85 21.47c-36.73.19-67.77-28.71-70.06-65.37a69.92 69.92 0 0 1 49.84-71.4 3.27 3.27 0 0 1 4.18 2.59 3.21 3.21 0 0 1-2.23 3.63 63.3 63.3 0 1 0 66.22 101.55 3.1 3.1 0 0 1 2.24-1.09 3.35 3.35 0 0 1 2.45 1zm-66.66 29.92a3.15 3.15 0 0 0-3-3 79 79 0 0 1-70-102.53A3.18 3.18 0 0 0 8.38 58l-.2-.08a3.16 3.16 0 0 0-4.23 2 85.44 85.44 0 0 0 19.73 84.71 84.7 84.7 0 0 0 56.05 26.33 3.15 3.15 0 0 0 3.39-3.28zM80.56 39.25a46.41 46.41 0 0 1 43.5 20.12l16.63-16.63a69.29 69.29 0 0 0-55.12-27c-1.84 0-3.66.08-5.46.23a3.27 3.27 0 0 0-2.94 3.79 3.24 3.24 0 0 0 3.43 2.71c1.64-.13 3.3-.21 5-.21a63.47 63.47 0 0 1 46.56 20.49 1.35 1.35 0 0 1-.06 1.88l-5.38 5.23a1.27 1.27 0 0 1-1 .38 1.33 1.33 0 0 1-1-.44A53 53 0 0 0 83 32.53C56.44 33.8 34.31 55.54 32.58 82A53 53 0 0 0 36 104.47a3.25 3.25 0 0 0 4.64 1.66 3.23 3.23 0 0 0 1.42-4 46.56 46.56 0 0 1 38.5-62.91zm78 .6l-5.94-7.34A85.63 85.63 0 0 0 85.45 0Q82 0 78.53.28A85.51 85.51 0 0 0 9.39 46.62 3.17 3.17 0 0 0 11 51l.22.09a3.16 3.16 0 0 0 4-1.52A78.93 78.93 0 0 1 144.6 33.1l7.75 9.52a1.36 1.36 0 0 1-.09 1.82l-24 23.91c-.07.06-3 2.56-5.27 4.59a1.36 1.36 0 0 1-2.17-.56 36.75 36.75 0 0 0-71.12 9 36.41 36.41 0 0 0 9.18 28.1 36.66 36.66 0 0 0 52.1 2.71 1.39 1.39 0 0 1 1.88 0l4.66 4.5a1.36 1.36 0 0 1-.07 2c-7.25 6.16-18.65 13.49-31.79 13.49a46.62 46.62 0 0 1-37.25-18.68 3.21 3.21 0 0 0-4.16-.84 3.24 3.24 0 0 0-1 4.76 51.54 51.54 0 0 0 3.45 4.12 54 54 0 0 0 39 17.16h.27c17.32 0 34.42-14.23 41-20.37a2 2 0 0 0 .64-1.49 2 2 0 0 0-.67-1.48l-12.64-11.3a2 2 0 0 0-1.53-.51 2 2 0 0 0-1.38.75 31.73 31.73 0 0 1-56.88-17.59A31.78 31.78 0 1 1 118 85a1.13 1.13 0 0 0 1.92.87l11.51-11.51 26.69-26.53a5.92 5.92 0 0 0 .45-7.98z" fill="url(#a7797ece3-614c-482e-bd9f-658fa7714835)"></path></g></svg></svg> <!----></g></g> <g transform="translate(67,27.81129741668701)"><g data-gra="path-name" fill-rule="" class="tp-name iconsvg-namesvg"><g transform="scale(1)"><g><path d="M1.57-0.9L1.57-0.9Q1.36-0.9 1.17-0.98 0.99-1.05 0.87-1.19 0.74-1.33 0.69-1.51 0.65-1.7 0.71-1.91L0.71-1.91 1.72-9.43 10.83-9.43 10.68-7.98 4.32-7.98 3.6-2.35 9.23-2.35 9.95-2.92 9.67-0.9 1.57-0.9ZM12.68-9.43L16.16-9.43 15.72-6.11 19.08-6.11 19.48-8.85 19.05-9.43 22.38-9.43 21.22-0.9 18.33-0.9 18.9-4.67 15.52-4.67 15-0.9 12.11-0.9 13.27-9 12.68-9.43ZM24.45-9.43L32.69-9.43 32.55-7.98 27.78-7.98 27.5-6.11 31.97-6.11 31.83-4.67 27.19-4.67 26.91-2.35 31.97-2.35 31.83-0.9 23.73-0.9 24.89-8.85 24.45-9.43ZM34.54-9.43L38.02-9.43 41.05-4.08 41.77-9.43 44.24-9.43 43.08-0.9 40.19-0.9 37.3-6.11 36.58-0.9 33.97-0.9 35.13-8.85 34.54-9.43ZM46.17-9.43L49.93-9.43 51.53-4.08 54.55-9.43 57.6-9.43 56.44-0.9 53.83-0.9 54.55-5.39 52.25-1.48 49.93-1.48 48.77-5.24 48.2-0.9 45.59-0.9 46.75-8.85 46.17-9.43ZM59.6-9.43L63.08-9.43 61.77-0.9 59.03-0.9 60.04-8.85 59.6-9.43ZM65.08-9.43L68.56-9.43 71.58-4.08 72.31-9.43 74.78-9.43 73.62-0.9 70.73-0.9 67.84-6.11 67.11-0.9 64.51-0.9 65.67-8.85 65.08-9.43ZM86.28-9.43L85.99-6.97 83.1-6.97 83.24-7.98 79.78-7.98 79.05-2.35 82.52-2.35 82.67-4.08 81.79-5.53 85.69-5.53 85.12-0.9 77.02-0.9Q76.81-0.9 76.63-0.98 76.45-1.05 76.32-1.19 76.19-1.33 76.15-1.51 76.1-1.7 76.16-1.91L76.16-1.91 77.17-9.43 86.28-9.43ZM97.24-9.43L100.72-9.43 100.28-6.11 103.64-6.11 104.05-8.85 103.61-9.43 106.94-9.43 105.78-0.9 102.89-0.9 103.46-4.67 100.09-4.67 99.56-0.9 96.67-0.9 97.83-9 97.24-9.43ZM109.33-9.43L117.44-9.43Q117.65-9.43 117.83-9.35 118.01-9.28 118.14-9.14 118.26-9 118.31-8.82 118.35-8.64 118.29-8.42L118.29-8.42 117.28-0.9 109.18-0.9Q108.97-0.9 108.79-0.98 108.61-1.05 108.48-1.19 108.36-1.33 108.31-1.51 108.27-1.7 108.33-1.91L108.33-1.91 109.33-9.43ZM115.4-7.98L111.94-7.98 111.22-2.35 114.54-2.35 115.4-7.98ZM120.12-9.43L123.58-9.43 122.57-2.35 128.2-2.35 128.07-0.9 120.55-0.9Q120.12-0.9 119.9-1.19 119.68-1.48 119.68-1.91L119.68-1.91 120.55-8.85 120.12-9.43ZM129.9-9.43L139.6-9.43 138.58-1.91Q138.58-1.48 138.22-1.19 137.87-0.9 137.43-0.9L137.43-0.9 129.33-0.9 130.34-8.85 129.9-9.43ZM136.71-7.98L133.23-7.98 132.37-2.35 135.84-2.35 136.71-7.98ZM141.6-9.43L145.08-9.43 143.77-0.9 141.03-0.9 142.04-8.85 141.6-9.43ZM147.08-9.43L150.56-9.43 153.59-4.08 154.31-9.43 156.78-9.43 155.62-0.9 152.73-0.9 149.84-6.11 149.12-0.9 146.51-0.9 147.67-8.85 147.08-9.43ZM168.29-9.43L168-6.97 165.11-6.97 165.24-7.98 161.78-7.98 161.06-2.35 164.52-2.35 164.67-4.08 163.8-5.53 167.7-5.53 167.13-0.9 159.02-0.9Q158.81-0.9 158.63-0.98 158.45-1.05 158.32-1.19 158.2-1.33 158.15-1.51 158.11-1.7 158.17-1.91L158.17-1.91 159.18-9.43 168.29-9.43ZM170.36-2.64L175.57-2.64 175.86-4.37 170.08-4.37 170.8-9.43 179.32-9.43 179.04-6.97 176.15-6.97 176.3-7.98 173.54-7.98 173.1-5.81 178.89-5.81 178.31-1.91Q178.31-1.7 178.22-1.51 178.12-1.33 177.95-1.19 177.79-1.05 177.58-0.98 177.38-0.9 177.15-0.9L177.15-0.9 169.64-0.9 169.93-3.22 170.36-2.64Z" transform="translate(-0.6740000247955322, 9.430000305175781)"></path></g> <!----> <!----> <!----> <!----> <!----> <!----> <!----></g></g> <!----></g></g><defs v-gra="od"></defs></svg>